:SAMPLES-PER-SECOND 30
:FULLY-SPECIFIED
:DEGREES
103
root  -13.0824 37.0997 -0.548 -166.2 -81.8751 160.365
RightUpLeg  3.94855 -5.45088 -16.761
RightLeg  83.1147 -1.4177 -19.2107
RightFoot  -5.72149 -0.0864805 0.980704
RightToes  -4.65663e-010 0 -3.6325e-017
Spine  13.5562 5.17679 3.39208
Spine1  6.53593 7.40368 -5.24086
HEad  6.31918 2.92334 -4.6998
LeftShoulder1  4.21776 -6.91647 -34.3501
LeftArm  -20.6188 50.1218 -13.599
LeftForeArm  24.0769 -18.9769 -2.02716
LeftHand  -0.244104 0.0205437 5.32207
RightShoulder  4.54212 8.42055 32.1365
RightArm  5.42326 -6.43788 41.2056
RightForeArm  36.5473 72.1288 33.4164
RightHand  -2.51957 6.15819 -25.2574
LeftUpLeg  -27.819 14.6731 -9.67793
LeftLeg  34.1074 3.58879 2.98953
LeftFoot  -2.56108 -0.614479 8.32726
LeftToes  -5.82109e-011 -4.83791e-012 -1.00937e-011
104
root  -14.6499 36.4727 -0.623033 -155.538 -83.1439 146.778
RightUpLeg  -2.48854 -2.97028 -14.9227
RightLeg  86.6018 -0.248724 -20.7328
RightFoot  -8.26153 -0.0583734 0.144471
RightToes  -4.65663e-010 0 -3.6325e-017
Spine  19.1569 3.73445 1.92086
Spine1  7.31441 5.91784 -5.09812
HEad  2.65804 4.16284 -5.8417
LeftShoulder1  4.97081 -7.98497 -37.1029
LeftArm  -18.6867 40.8518 -20.3599
LeftForeArm  21.1916 -15.2383 -1.57513
LeftHand  -0.244104 0.0205437 5.32207
RightShoulder  5.01744 8.96413 34.2895
RightArm  -0.282487 -6.35548 41.8161
RightForeArm  26.4259 63.8419 20.7008
RightHand  -2.7386 6.4221 -26.6964
LeftUpLeg  -26.2134 11.6282 -10.3047
LeftLeg  42.6858 5.09341 5.39418
LeftFoot  -9.2493 -0.127814 8.88203
LeftToes  -5.82109e-011 -4.83791e-012 -1.00937e-011
105
root  -16.2005 36.3898 -0.615722 -157.628 -83.106 147.336
RightUpLeg  -10.5967 0.46617 -12.0153
RightLeg  85.2433 -0.880082 -22.5127
RightFoot  -10.1423 -0.0679572 -0.0704319
RightToes  -4.65663e-010 0 -3.6325e-017
Spine  22.431 2.99414 2.44367
Spine1  8.1436 5.49416 -5.57071
HEad  2.19706 5.51088 -7.10123
LeftShoulder1  5.90257 -9.50336 -39.1643
LeftArm  -16.4617 32.8095 -25.5357
LeftForeArm  28.4343 -17.5815 -2.70276
LeftHand  -0.244104 0.0205437 5.32207
RightShoulder  5.43029 9.55868 35.6041
RightArm  -4.36074 -8.81898 41.2144
RightForeArm  14.5393 56.5849 15.8665
RightHand  -3.66046 8.57325 -30.029
LeftUpLeg  -22.7903 9.63899 -9.8239
LeftLeg  45.6538 6.87503 7.86067
LeftFoot  -14.5853 0.278625 6.5666
LeftToes  -5.82109e-011 -4.83791e-012 -1.00937e-011
106
root  -17.8325 36.6918 -0.625058 -158.268 -83.0919 148.231
RightUpLeg  -18.4284 2.45214 -10.277
RightLeg  78.6696 -3.56828 -22.2338
RightFoot  -11.4955 -0.0766313 -0.128525
RightToes  -4.65663e-010 0 -3.6325e-017
Spine  23.1657 2.39591 1.60696
Spine1  8.23622 4.39422 -4.50582
HEad  3.26809 8.0483 -8.09792
LeftShoulder1  6.48572 -10.203 -41.0064
LeftArm  -14.7518 27.6834 -29.4112
LeftForeArm  44.0871 -28.4082 -3.8072
LeftHand  -0.244104 0.0205437 5.32207
RightShoulder  5.55637 9.6226 36.3426
RightArm  -3.42912 -12.1901 39.3883
RightForeArm  1.62422 52.44 14.5473
RightHand  -4.74284 11.2431 -32.5857
LeftUpLeg  -19.5942 7.8919 -9.78856
LeftLeg  45.0709 8.20622 9.11686
LeftFoot  -16.508 0.332872 5.11143
LeftToes  -5.82109e-011 -4.83791e-012 -1.00937e-011
107
root  -19.4667 37.2199 -0.696045 -152.784 -83.7769 143.748
RightUpLeg  -24.0911 2.4446 -9.55609
RightLeg  67.0385 -7.28257 -18.9781
RightFoot  -11.3441 -0.0781946 0.687725
RightToes  -4.65663e-010 0 -3.6325e-017
Spine  23.3866 1.36196 -0.259281
Spine1  7.61412 2.34626 -3.04932
HEad  3.69109 11.3946 -8.88105
LeftShoulder1  6.66954 -10.0953 -42.605
LeftArm  -15.2388 24.3691 -31.4276
LeftForeArm  60.5699 -43.7432 -6.9251
LeftHand  -0.244104 0.0205437 5.32207
RightShoulder  5.45001 9.3007 36.5664
RightArm  0.392946 -15.4134 37.3142
RightForeArm  -2.47138 50.9092 14.0626
RightHand  -5.07593 12.3015 -32.7369
LeftUpLeg  -16.5906 6.40093 -10.0273
LeftLeg  42.9239 8.79592 9.05759
LeftFoot  -17.3339 0.345088 4.60553
LeftToes  -5.82109e-011 -4.83791e-012 -1.00937e-011
